<?xml version="1.0" encoding="utf-8"?>
<!-- Generator: Adobe Illustrator 19.1.0, SVG Export Plug-In . SVG Version: 6.00 Build 0)  -->
<svg version="1.1" id="Layer_1" xmlns="http://www.w3.org/2000/svg" xmlns:xlink="http://www.w3.org/1999/xlink" x="0px" y="0px"
	 viewBox="-945 528.8 28 24.2" style="enable-background:new -945 528.8 28 24.2;" xml:space="preserve">
<style type="text/css">
	.st0{fill:#8C8C8C;}
</style>
<g>
	<path class="st0" d="M-926.4,531.9c1.3,0,2.4,1.1,2.4,2.4v13.2c0,1.3-1.1,2.4-2.4,2.4h-13.2c-1.3,0-2.4-1.1-2.4-2.4v-13.2
		c0-1.3,1.1-2.4,2.4-2.4H-926.4 M-926.4,529.9h-13.2c-2.4,0-4.4,1.9-4.4,4.4v13.2c0,2.4,2,4.4,4.4,4.4h13.2c2.4,0,4.4-2,4.4-4.4
		v-13.2C-922,531.8-924,529.9-926.4,529.9L-926.4,529.9z"/>
</g>
</svg>
