<?xml version="1.0" encoding="UTF-8"?>
<svg width="25px" height="25px" viewBox="0 0 25 25" version="1.1" xmlns="http://www.w3.org/2000/svg" xmlns:xlink="http://www.w3.org/1999/xlink">
    <!-- Generator: Sketch 49.1 (51147) - http://www.bohemiancoding.com/sketch -->
    <title>Fill 1</title>
    <desc>Created with Sketch.</desc>
    <defs></defs>
    <g id="apps" stroke="none" stroke-width="1" fill="none" fill-rule="evenodd">
        <g id="Google_login_guest" transform="translate(-539.000000, -263.000000)" fill="#FFFFFF">
            <g id="FACEBOOK" transform="translate(533.000000, 257.000000)">
                <path d="M29.6202387,6 L7.37976125,6 C6.61766094,6 6,6.61765863 6,7.37975608 L6,29.6201502 C6,30.382154 6.61766094,31 7.37976125,31 L19.353335,31 L19.353335,21.3186646 L16.0953,21.3186646 L16.0953,17.5456453 L19.353335,17.5456453 L19.353335,14.763184 C19.353335,11.5341988 21.3254663,9.77592312 24.2060106,9.77592312 C25.5858655,9.77592312 26.7717296,9.87858521 27.1172788,9.92448341 L27.1172788,13.2990315 L25.1194819,13.2999682 C23.5529424,13.2999682 23.2495448,14.044362 23.2495448,15.1367392 L23.2495448,17.5456453 L26.9857659,17.5456453 L26.4993368,21.3186646 L23.2495448,21.3186646 L23.2495448,31 L29.6202387,31 C30.3822454,31 31,30.382154 31,29.6201502 L31,7.37975608 C31,6.61765863 30.3822454,6 29.6202387,6" id="Fill-1"></path>
            </g>
        </g>
    </g>
</svg>