<svg id="Layer_1" data-name="Layer 1" xmlns="http://www.w3.org/2000/svg" viewBox="0 0 253.25 76"><defs><style>.cls-1{fill:#fff;}.cls-2{fill:#ce0e2d;fill-rule:evenodd;}</style></defs><path d="M232.73.94H18.52L16.84,1a24,24,0,0,0-3.67.33A12.19,12.19,0,0,0,9.7,2.43a11.73,11.73,0,0,0-3,2.16,11.48,11.48,0,0,0-2.16,3A11.85,11.85,0,0,0,3.44,11a23.6,23.6,0,0,0-.33,3.66c0,.56,0,1.12,0,1.68V59.62c0,.57,0,1.12,0,1.69A23.71,23.71,0,0,0,3.44,65a12,12,0,0,0,1.14,3.48,11.43,11.43,0,0,0,2.16,3,11.23,11.23,0,0,0,3,2.15,12.55,12.55,0,0,0,3.47,1.16,25.26,25.26,0,0,0,3.67.32l1.68,0h216.2l1.68,0a24.77,24.77,0,0,0,3.66-.32,12.68,12.68,0,0,0,3.49-1.16,11.78,11.78,0,0,0,5.12-5.11A11.93,11.93,0,0,0,249.8,65a23.73,23.73,0,0,0,.34-3.66c0-.57,0-1.12,0-1.69s0-1.32,0-2V18.38c0-.67,0-1.33,0-2s0-1.12,0-1.68A23.61,23.61,0,0,0,249.8,11a11.69,11.69,0,0,0-3.29-6.45,12.1,12.1,0,0,0-3-2.16,12.32,12.32,0,0,0-3.49-1.14A23.49,23.49,0,0,0,236.4,1l-1.68,0Z"/><path d="M18.53,73.46l-1.65,0a22.31,22.31,0,0,1-3.42-.3,10.69,10.69,0,0,1-3-1A10.25,10.25,0,0,1,6,67.73a10.89,10.89,0,0,1-1-3,22.54,22.54,0,0,1-.3-3.43c0-.39,0-1.67,0-1.67V16.38s0-1.26,0-1.63A22.33,22.33,0,0,1,5,11.32a10.54,10.54,0,0,1,1-3A9.84,9.84,0,0,1,7.86,5.73a10,10,0,0,1,2.57-1.87,10.52,10.52,0,0,1,3-1,22.54,22.54,0,0,1,3.43-.3l1.65,0H234.71l1.67,0a22.28,22.28,0,0,1,3.4.3,10.71,10.71,0,0,1,3.05,1,10.21,10.21,0,0,1,4.42,4.43,10.63,10.63,0,0,1,1,3,24.33,24.33,0,0,1,.32,3.46v1.62c0,.69,0,1.34,0,2V57.62c0,.66,0,1.31,0,2v1.7a23.65,23.65,0,0,1-.32,3.39,10.69,10.69,0,0,1-1,3,10.27,10.27,0,0,1-1.86,2.54,10.14,10.14,0,0,1-2.56,1.87,10.72,10.72,0,0,1-3.05,1,22.31,22.31,0,0,1-3.42.3l-1.64,0H18.53Z"/><path class="cls-1" d="M94.72,51H86.15l-2.1,5.73H80.28l8.39-21.42h3.57l8.59,21.42h-4Zm-7.49-2.92h6.4L91.34,42c-.32-.85-.63-1.79-.94-2.81-.27.91-.57,1.83-.9,2.78Z"/><path class="cls-1" d="M102.53,44.72q0-1.77-.12-3.9h3.43a16.81,16.81,0,0,1,.27,2A6.44,6.44,0,0,1,111,40.52a5.53,5.53,0,0,1,5.16,3.35,10.31,10.31,0,0,1,.83,4.42,11,11,0,0,1-1,4.77,6.87,6.87,0,0,1-2.67,3,7.58,7.58,0,0,1-4,1,9.59,9.59,0,0,1-3.21-.55v6.6l-3.65.31Zm9.6,8.16a7.33,7.33,0,0,0,1.12-4.39,6.42,6.42,0,0,0-.93-3.88,2.93,2.93,0,0,0-2.46-1.2,3.93,3.93,0,0,0-2,.5,7,7,0,0,0-1.71,1.35V53.8a5.26,5.26,0,0,0,1.27.42,7.06,7.06,0,0,0,1.44.16A3.79,3.79,0,0,0,112.13,52.88Z"/><path class="cls-1" d="M119.31,44.72q0-1.77-.12-3.9h3.43a16.81,16.81,0,0,1,.27,2,6.46,6.46,0,0,1,4.88-2.33,5.65,5.65,0,0,1,3,.81,5.72,5.72,0,0,1,2.2,2.54,10.31,10.31,0,0,1,.83,4.42,11,11,0,0,1-.95,4.77,6.87,6.87,0,0,1-2.67,3,7.58,7.58,0,0,1-4,1,9.63,9.63,0,0,1-3.21-.55v6.6l-3.65.31Zm9.6,8.16A7.26,7.26,0,0,0,130,48.49a6.42,6.42,0,0,0-.93-3.88,2.93,2.93,0,0,0-2.46-1.2,3.89,3.89,0,0,0-2,.5A6.91,6.91,0,0,0,123,45.26V53.8a5.26,5.26,0,0,0,1.27.42,7.06,7.06,0,0,0,1.44.16A3.78,3.78,0,0,0,128.91,52.88Z"/><path class="cls-1" d="M140.64,55.76A8.84,8.84,0,0,1,137,52a12.42,12.42,0,0,1-1.27-5.76,12,12,0,0,1,1.47-6.13,9.43,9.43,0,0,1,4-3.79,12.49,12.49,0,0,1,5.66-1.26,14.44,14.44,0,0,1,3.52.41,15.45,15.45,0,0,1,3.13,1.11l-.93,2.81A12.88,12.88,0,0,0,147,38a7.83,7.83,0,0,0-3.91,1,6.47,6.47,0,0,0-2.61,2.81,9.83,9.83,0,0,0-.93,4.46,11,11,0,0,0,.71,4.07,6,6,0,0,0,2.27,2.81,6.85,6.85,0,0,0,3.89,1,12.76,12.76,0,0,0,2.13-.18,11,11,0,0,0,2-.52V49.11h-5V46.28h8.5v9a19.22,19.22,0,0,1-3.85,1.32,18.34,18.34,0,0,1-4,.46A11.41,11.41,0,0,1,140.64,55.76Z"/><path class="cls-1" d="M167.25,56.77a13.74,13.74,0,0,1-.25-2.11,6.9,6.9,0,0,1-2.19,1.7,6.54,6.54,0,0,1-3.06.71,5.72,5.72,0,0,1-2.5-.54,4.11,4.11,0,0,1-1.8-1.63,5,5,0,0,1-.66-2.65,4.56,4.56,0,0,1,1.67-3.71q1.66-1.38,5.57-1.38a20,20,0,0,1,2.9.21v-.31a4,4,0,0,0-.9-3,3.61,3.61,0,0,0-2.59-.87,10,10,0,0,0-2.5.35,12.28,12.28,0,0,0-2.34.81L158,41.71a14,14,0,0,1,2.57-.82,15.26,15.26,0,0,1,3.37-.37,8.83,8.83,0,0,1,3.52.63,4.63,4.63,0,0,1,2.26,2.16,8.84,8.84,0,0,1,.81,4.12v6.34q0,1,.12,3Zm-2.19-3a5.76,5.76,0,0,0,1.87-1.36v-3a23,23,0,0,0-2.44-.16,5,5,0,0,0-3.13.73,2.46,2.46,0,0,0-.86,2,2.27,2.27,0,0,0,.62,1.75,2.45,2.45,0,0,0,1.71.57A5,5,0,0,0,165.06,53.81Z"/><path class="cls-1" d="M173.76,52.94V34.09l3.64-.29V52.29a2.31,2.31,0,0,0,.34,1.44,1.35,1.35,0,0,0,1.1.42,4.06,4.06,0,0,0,1-.16l.42,2.62a5.72,5.72,0,0,1-1.26.33,9,9,0,0,1-1.41.13Q173.77,57.07,173.76,52.94Z"/><path class="cls-1" d="M182.85,52.94V34.09l3.64-.29V52.29a2.24,2.24,0,0,0,.35,1.44,1.33,1.33,0,0,0,1.1.42,4.08,4.08,0,0,0,1-.16l.43,2.62a6,6,0,0,1-1.27.33,9,9,0,0,1-1.41.13Q182.86,57.07,182.85,52.94Z"/><path class="cls-1" d="M204.47,49.26H194q.25,5,4.77,5a10.23,10.23,0,0,0,2.3-.27,13.88,13.88,0,0,0,2.26-.73l.79,2.5a13.63,13.63,0,0,1-6,1.3,8.78,8.78,0,0,1-4.29-1,6.16,6.16,0,0,1-2.62-2.77,9.78,9.78,0,0,1-.88-4.35,10.29,10.29,0,0,1,.93-4.55,6.75,6.75,0,0,1,2.59-2.91,7.29,7.29,0,0,1,3.84-1,6.48,6.48,0,0,1,3.78,1.06,6.24,6.24,0,0,1,2.24,2.82,10,10,0,0,1,.74,3.89Zm-3.57-2.32a4.57,4.57,0,0,0-1-2.86,2.9,2.9,0,0,0-2.29-.95,3.06,3.06,0,0,0-2.31,1,5.08,5.08,0,0,0-1.21,2.85Z"/><path class="cls-1" d="M207.41,44.83c0-.88,0-2.22-.12-4h3.41c.06.44.12,1,.17,1.59s.1,1.12.12,1.5a14.13,14.13,0,0,1,1.24-1.77A5.22,5.22,0,0,1,213.67,41a3.73,3.73,0,0,1,1.87-.46,5.17,5.17,0,0,1,1.45.18l-.46,3.17a4,4,0,0,0-1.18-.17,3.87,3.87,0,0,0-2.25.66A9.05,9.05,0,0,0,211,46.53V56.77h-3.63Z"/><path class="cls-1" d="M219.18,63.3a9.87,9.87,0,0,1-1.32-.32l.67-2.66c.24.07.55.13.93.2a6.75,6.75,0,0,0,1.06.1c1.62,0,2.83-1,3.64-3.12l.24-.6-5.89-16.08h3.92l3,9a29.8,29.8,0,0,1,.93,3.53c.27-1.15.6-2.3,1-3.46l3-9.06H234L228.11,57a16.71,16.71,0,0,1-1.79,3.69,6.23,6.23,0,0,1-2.27,2.09,6.83,6.83,0,0,1-3.16.68A10.2,10.2,0,0,1,219.18,63.3Z"/><path class="cls-1" d="M80.26,14.51h6.58l-.18,1.59H82.19v3.08H86.4v1.49H82.19v3.42H86.9l-.16,1.6H80.26Z"/><path class="cls-1" d="M91.38,20l-3.47-5.48H90.1l2.36,4,2.47-4h2.14l-3.45,5.41,3.73,5.77H95.13l-2.66-4.4-2.72,4.4H87.62Z"/><path class="cls-1" d="M98.77,14.51h3a5.22,5.22,0,0,1,3.25.87,3,3,0,0,1,1.13,2.5,3.71,3.71,0,0,1-.5,1.94,3.34,3.34,0,0,1-1.41,1.27,4.64,4.64,0,0,1-2.08.45,7.55,7.55,0,0,1-1.47-.16v4.31H98.77Zm4.84,5a2,2,0,0,0,.62-1.58,1.73,1.73,0,0,0-.63-1.49,3.16,3.16,0,0,0-1.85-.45h-1v4a8.78,8.78,0,0,0,1.11.11A2.56,2.56,0,0,0,103.61,19.5Z"/><path class="cls-1" d="M108.07,14.51H110V24h4.62l-.16,1.65h-6.39Z"/><path class="cls-1" d="M117.55,25.14a4.68,4.68,0,0,1-1.87-2,6.44,6.44,0,0,1-.65-3,6.58,6.58,0,0,1,.69-3.09,4.86,4.86,0,0,1,2-2,6.25,6.25,0,0,1,3.07-.72,5.7,5.7,0,0,1,2.91.7,4.51,4.51,0,0,1,1.86,2,6.38,6.38,0,0,1,.64,2.93,6.57,6.57,0,0,1-.7,3.13,4.8,4.8,0,0,1-2,2.05,6.12,6.12,0,0,1-3,.72A5.77,5.77,0,0,1,117.55,25.14Zm5-1.37a3.3,3.3,0,0,0,1.21-1.49,5.59,5.59,0,0,0,.4-2.19,6.2,6.2,0,0,0-.35-2.14,3.18,3.18,0,0,0-1.14-1.5,3.32,3.32,0,0,0-2-.56,3.48,3.48,0,0,0-2,.56A3.61,3.61,0,0,0,117.45,18a5.36,5.36,0,0,0-.41,2.11,5.71,5.71,0,0,0,.39,2.17,3.3,3.3,0,0,0,1.18,1.51,3.37,3.37,0,0,0,2,.56A3.42,3.42,0,0,0,122.56,23.77Z"/><path class="cls-1" d="M128.35,14.51h3.5a4.63,4.63,0,0,1,2.89.77,2.58,2.58,0,0,1,1,2.18,3.39,3.39,0,0,1-1.24,2.66,3.79,3.79,0,0,1-1.08.64l3.44,4.93h-2.24l-2.91-4.43h-1.42v4.43h-1.93Zm3,5.29a2.77,2.77,0,0,0,1.25-.27,2,2,0,0,0,.84-.78,2.17,2.17,0,0,0,.3-1.15,1.43,1.43,0,0,0-.53-1.23,2.64,2.64,0,0,0-1.56-.39h-1.39V19.8Z"/><path class="cls-1" d="M138.38,14.51H145l-.18,1.59h-4.47v3.08h4.21v1.49h-4.21v3.42H145l-.17,1.6h-6.47Z"/><path class="cls-1" d="M152.12,14.51h1.93V25.69h-1.93Z"/><path class="cls-1" d="M159.16,16.13h-3.47l.17-1.62h8.7l-.18,1.62h-3.29v9.56h-1.93Z"/><path class="cls-1" d="M172.94,25.14a4.64,4.64,0,0,1-1.88-2,6.44,6.44,0,0,1-.65-3,6.58,6.58,0,0,1,.69-3.09,4.82,4.82,0,0,1,2-2,6.21,6.21,0,0,1,3.06-.72,5.7,5.7,0,0,1,2.91.7,4.51,4.51,0,0,1,1.86,2,6.39,6.39,0,0,1,.65,2.93,6.69,6.69,0,0,1-.7,3.13,4.92,4.92,0,0,1-2,2.05,6.18,6.18,0,0,1-3,.72A5.76,5.76,0,0,1,172.94,25.14Zm5-1.37a3.3,3.3,0,0,0,1.21-1.49,5.59,5.59,0,0,0,.4-2.19A6,6,0,0,0,179.2,18a3.18,3.18,0,0,0-1.14-1.5,3.31,3.31,0,0,0-2-.56A3.29,3.29,0,0,0,172.84,18a5.19,5.19,0,0,0-.41,2.11,5.91,5.91,0,0,0,.38,2.17A3.26,3.26,0,0,0,174,23.76a3.33,3.33,0,0,0,2,.56A3.42,3.42,0,0,0,177.94,23.77Z"/><path class="cls-1" d="M183.73,14.51H186l5.52,8.66c0-.82-.07-1.58-.07-2.27V14.51h1.79V25.69h-2.14l-5.61-8.8c.05,1,.08,1.88.08,2.66v6.14h-1.79Z"/><g id="形状_1_拷贝_25" data-name="形状 1 拷贝 25"><path class="cls-2" d="M53.16,14.42H32.54c-9.72,0-13.27,3.56-13.27,13.27V48.31c0,9.71,3.55,13.27,13.27,13.27H53.15c9.72,0,13.28-3.56,13.28-13.27V27.69C66.43,18,62.87,14.42,53.16,14.42Z"/></g><path class="cls-1" d="M28.61,38h1.25v6.17H28.61v-2.5H25.79v2.5H24.53V38h1.26v2.49h2.82Zm7,3.53c0,1-.5,1.54-1.41,1.54s-1.4-.55-1.4-1.58V38H31.59v3.52a2.45,2.45,0,0,0,2.65,2.73,2.48,2.48,0,0,0,2.67-2.78V38H35.66Zm14.45.71L48.71,38h-1l-1.4,4.24L44.93,38H43.6l2.15,6.16h1l1.41-4.05,1.4,4.05h1L52.77,38H51.48ZM55,41.52h2.27V40.39H55V39.13h3.3V38H53.78v6.16h4.66V43H55Zm4.91,2.64h1.23V38H59.93ZM39.38,42.88l-.56,1.29H37.54L40.26,38h1.1l2.7,6.17H42.75l-.55-1.29Zm.46-1.11h1.89l-.94-2.21Z"/><path class="cls-1" d="M42.85,30.15A7.85,7.85,0,0,1,35,22.31h1.11a6.74,6.74,0,0,0,13.48,0H50.7A7.85,7.85,0,0,1,42.85,30.15Z"/></svg>