<svg xmlns="http://www.w3.org/2000/svg" width="141" height="30" viewBox="0 0 141 30">
    <g fill="#FFF">
        <path d="M17.01 24.122c-.456.16-.936.242-1.419.241-1.55 0-2.297-.818-2.974-2.047-.228-.39-.349-1.245-.349-1.245v-6.734H18l-.31-2.684c-.148-1.323-1.26-2.325-2.585-2.33h-2.837V1s-1.716.115-2.29.156c-2.934.231-4.917 2.195-4.917 4.489l.013 3.872L0 9.707v1.937c0 1.487 1.2 2.693 2.682 2.693h2.392v6.897l.038 1.005c.016 2.833 1.559 5.435 4.03 6.798 2.473 1.363 5.487 1.274 7.874-.234l-.006-4.68zM53.207 28.204c-1.472-1.194-2.208-2.86-2.207-5 0-2.222.71-3.93 2.13-5.123 1.421-1.193 3.456-1.79 6.104-1.791 1.043.002 2.083.119 3.102.35.922.195 1.817.506 2.666.926v-.411c0-2.113-1.67-3.17-5.011-3.17-2.333 0-3.761.158-5.696 1.084 0 0-.263-1.997-.327-2.678-.142-1.5 1.002-2.622 2.92-2.992l.04-.008c1.418-.264 2.856-.395 4.296-.39 3.551 0 6.236.734 8.053 2.204 1.817 1.47 2.725 3.521 2.723 6.153v9.032c0 2.42-.816 2.985-2.752 2.985H65.62l-.187-1.681c-.777.752-1.698 1.327-2.703 1.687-1.201.43-2.467.64-3.738.617-2.387 0-4.315-.597-5.784-1.79m10.161-3.17c.65-.287 1.212-.748 1.63-1.337v-1.733c-1.151-.799-2.511-1.216-3.898-1.194-.927 0-1.643.206-2.147.618-.504.411-.758 1.015-.761 1.811 0 .735.245 1.313.736 1.733.492.42 1.202.626 2.131.617.797.006 1.585-.17 2.308-.515M104.207 28.2c-1.472-1.194-2.208-2.86-2.207-5 0-2.224.71-3.933 2.131-5.126 1.42-1.193 3.455-1.79 6.104-1.791 1.043.001 2.083.119 3.102.35.922.195 1.817.506 2.666.926v-.411c0-2.114-1.67-3.17-5.011-3.17-2.334 0-3.762.157-5.698 1.084 0 0-.262-1.998-.326-2.679-.141-1.501 1.002-2.623 2.92-2.994l.04-.007c1.418-.261 2.855-.389 4.295-.382 3.552 0 6.236.736 8.052 2.206 1.817 1.47 2.725 3.522 2.725 6.154v9.035c0 2.422-.817 2.986-2.752 2.986h-3.629l-.183-1.688c-.777.753-1.699 1.328-2.705 1.688-1.2.43-2.466.64-3.737.617-2.386 0-4.314-.597-5.784-1.791m10.16-3.17c.65-.287 1.214-.749 1.633-1.338v-1.733c-1.152-.8-2.512-1.216-3.899-1.194-.928 0-1.644.206-2.148.617-.503.412-.757 1.016-.76 1.812 0 .735.244 1.313.735 1.733.49.42 1.2.626 2.13.618.797.006 1.584-.17 2.307-.515M20.207 28.21C18.736 27.016 18 25.35 18 23.21c0-2.225.71-3.933 2.13-5.126 1.421-1.194 3.456-1.79 6.104-1.792 1.043.002 2.083.12 3.102.35.922.195 1.817.506 2.666.926v-.41c0-2.114-1.67-3.171-5.011-3.171-2.333 0-3.761.158-5.696 1.084 0 0-.263-1.998-.327-2.679-.142-1.501 1.002-2.623 2.92-2.993l.04-.008c1.418-.264 2.856-.395 4.296-.39 3.551 0 6.235.734 8.051 2.205C38.092 12.676 39 14.728 39 17.36v9.035c0 2.422-.817 2.986-2.752 2.986H32.62l-.184-1.688c-.777.753-1.698 1.328-2.704 1.688-1.201.43-2.466.64-3.737.617-2.387 0-4.315-.597-5.784-1.791m10.161-3.17c.65-.287 1.213-.75 1.63-1.338v-1.733c-1.151-.8-2.511-1.216-3.897-1.194-.929 0-1.645.205-2.148.617-.503.412-.757 1.016-.761 1.812 0 .735.245 1.313.735 1.733.492.412 1.2.618 2.13.618.797.006 1.585-.17 2.308-.515M49 29l-.006-29s-1.667.112-2.223.153C43.93.38 42 2.296 42 4.524V29h7zM98.715 14.293c-.827-1.546-2.081-2.819-3.611-3.667-1.544-.864-3.34-1.297-5.386-1.297-1.254-.006-2.5.193-3.69.588-1.074.335-2.07.879-2.934 1.601L83.114 0s-1.696.113-2.26.155C77.955.383 76 2.327 76 4.584v24.808h6.672l.188-1.945c1.8 1.7 4.087 2.552 6.858 2.553 2.018 0 3.807-.426 5.366-1.277 1.532-.824 2.794-2.078 3.631-3.608.857-1.552 1.285-3.357 1.285-5.414 0-2.026-.43-3.83-1.29-5.41m-7.343 8.916c-.887.852-2.057 1.278-3.51 1.277-1.028.014-2.038-.275-2.906-.83-.84-.532-1.49-1.32-1.853-2.25v-3.442c.363-.93 1.012-1.717 1.853-2.25.867-.555 1.878-.844 2.906-.83 1.452 0 2.622.432 3.51 1.296.888.865 1.334 2.04 1.337 3.523 0 1.488-.444 2.657-1.33 3.506M140.01 24.12c-.456.16-.935.242-1.418.242-1.549 0-2.297-.818-2.974-2.048-.227-.389-.348-1.244-.348-1.244v-6.733H141l-.302-2.68c-.146-1.328-1.263-2.333-2.592-2.334h-2.836V1s-1.716.115-2.289.156c-2.933.231-4.922 2.195-4.922 4.489l.013 3.871-5.072.19v1.937c0 1.488 1.2 2.694 2.68 2.694h2.392v6.896l.032 1.007c.016 2.832 1.558 5.434 4.03 6.797 2.47 1.363 5.483 1.274 7.87-.234l.006-4.682z"/>
    </g>
</svg>
