<?xml version="1.0" encoding="utf-8"?>
<!-- Generator: Adobe Illustrator 22.1.0, SVG Export Plug-In . SVG Version: 6.00 Build 0)  -->
<svg version="1.1" id="Layer_1" xmlns="http://www.w3.org/2000/svg" xmlns:xlink="http://www.w3.org/1999/xlink" x="0px" y="0px"
	 viewBox="0 0 60.6 84.6" style="enable-background:new 0 0 60.6 84.6;" xml:space="preserve">
<style type="text/css">
	.st0{fill:#FF6F00;}
	.st1{fill:#FFFFFF;}
</style>
<path class="st0" d="M53.6,76.8l4.3-0.2c1.5-0.1,2.7-1.3,2.7-2.8v-71c0-1.6-1.3-2.9-2.9-2.8L0,2.2l21.5,1.3h33.7
	c1.1,0,1.9,0.9,1.9,1.9v66c0,1-0.8,1.8-1.8,1.9l-1.6,0.1v3.4H53.6z"/>
<path class="st0" d="M0,2.2l49,3c1.8,0.1,3.2,1.6,3.2,3.4v72.6c0,2-1.8,3.6-3.8,3.4L0,78.7V2.2L0,2.2z"/>
<path class="st1" d="M17.6,59.7C9.8,71.3,4.3,66.1,12,54.5c1.3-1.9,4.5-4.9,7.4-8.1c0.5,0.9,0.7,1.6,1.7,1.8
	c0.3,0.8,0.6,1.6,0.9,2.3C20.3,54.2,18.8,58,17.6,59.7L17.6,59.7z"/>
<path class="st1" d="M23.9,39.7c0.8-2.2,0-2.9-0.3-5.5c-0.1-1.5,0.4-2.9,1.1-3.9c0.7-0.9,1.4-1.8,2.1-2.6c2.1-2.6,4.2-5.2,6.2-7.8
	c0.6-0.7,1.6,0.2,1.1,1c-1.9,2.8-3.8,5.5-5.7,8.3c-0.6,0.9-1.3,1.8-1.9,2.8c-0.4,0.5,0.6,1.4,0.9,0.9c0.7-0.9,1.4-1.8,2-2.7
	c2-2.7,4-5.4,6-8c0.6-0.8,1.6,0.2,1.1,1c-1.8,2.8-3.7,5.7-5.5,8.5c-0.6,0.9-1.2,1.9-1.9,2.9c-0.4,0.5,0.6,1.4,0.9,0.9
	c0.7-0.9,1.3-1.9,1.9-2.8c1.9-2.8,3.8-5.5,5.8-8.3c0.6-0.8,1.6,0.2,1.1,1c-1.7,2.9-3.5,5.8-5.3,8.7c-0.6,1-1.2,1.9-1.8,3
	c-0.3,0.6,0.6,1.4,0.9,0.9c0.6-1,1.2-1.9,1.9-2.9c1.8-2.8,3.7-5.7,5.5-8.5c0.5-0.8,1.6,0.1,1.1,1c-1.7,3-3.3,6-5,8.9
	c-0.6,1-1.1,2-1.7,3c-0.6,1.1-1.7,2-2.9,2.2c-2.6,0.4-3.1-0.8-5.5,1.9c-0.1,0.2-0.3,0.3-0.4,0.5C25.2,42.6,24.6,41.2,23.9,39.7
	L23.9,39.7z"/>
<path class="st1" d="M32.9,61.9c7.8,16.7,3,18.1-4.8,1.3c-1.5-3.1-3.6-9.7-5.9-15.4c-0.5-1.4-1-0.5-1.4-1.1
	c-1.1-2.3-3.7-6.7-6.4-11.6s-5.5-10.4-7-14.8c-0.9-2.6-2.1-6.1-0.6-7.9c1.1-1.4,3.3-1.5,4.3,0.8c2.3,5.3,4.6,10.6,6.9,15.9
	s4.6,10.6,6.9,15.9c0.5,1-0.5,0.5,0,1.5c0.1,0.1,0.1,0.3,0.2,0.4C28,52.6,31.5,58.8,32.9,61.9L32.9,61.9z"/>
</svg>
