<?xml version="1.0" encoding="utf-8"?>
<!-- Generator: Adobe Illustrator 19.2.1, SVG Export Plug-In . SVG Version: 6.00 Build 0)  -->
<svg version="1.1" id="Layer_1" xmlns="http://www.w3.org/2000/svg" xmlns:xlink="http://www.w3.org/1999/xlink" x="0px" y="0px"
	 viewBox="0 0 60 60" style="enable-background:new 0 0 60 60;" xml:space="preserve">
<style type="text/css">
	.st0{fill:#DCDCDC;}
</style>
<g>
	<g>
		<path class="st0" d="M59.7,13.8c-0.3-0.5-0.9-0.9-1.5-0.9l-37.2-1.5c-1,0-1.9,0.9-2.1,1.9c0,1,0.9,1.9,1.9,2.1l34.7,1.5l-6.9,21.3
			H18.3l-5.5-30c-0.2-0.7-0.7-1.2-1.2-1.5L2.5,3.2c-0.9-0.5-2.1,0-2.4,1s0.2,2.1,1,2.6l8.1,3.1l5.7,30.5c0.2,0.9,1,1.5,1.9,1.5h0.9
			l-2.2,5.8c-0.2,0.5-0.2,1,0.2,1.5c0.3,0.5,0.9,0.7,1.4,0.7h1.5c-0.9,1-1.5,2.4-1.5,3.8c0,3.3,2.6,5.8,5.8,5.8s5.8-2.6,5.8-5.8
			c0-1.5-0.5-2.9-1.5-3.8h12.5c-0.9,1-1.5,2.4-1.5,3.8c0,3.3,2.6,5.8,5.8,5.8c3.3,0,5.8-2.6,5.8-5.8c0-1.5-0.5-2.9-1.5-3.8H50
			c0.9,0,1.5-0.7,1.5-1.5s-0.7-1.5-1.5-1.5H19.3l1.7-4.8h29c0.9,0,1.5-0.5,1.9-1.4L60,15.7C60,14.8,60,14.3,59.7,13.8z M22.8,56.4
			c-1.4,0-2.6-1.2-2.6-2.6s1.2-2.6,2.6-2.6s2.6,1.2,2.6,2.6S24.1,56.4,22.8,56.4z M43.9,56.4c-1.4,0-2.6-1.2-2.6-2.6
			s1.2-2.6,2.6-2.6c1.4,0,2.6,1.2,2.6,2.6S45.4,56.4,43.9,56.4z"/>
	</g>
	<g>
		<path class="st0" d="M37.3,14.1c-0.5,0-5-0.2-9.4-0.3c-3.2-0.1-6-0.2-6.2-0.2c-0.7,0-1.3-0.4-1.6-1c-0.3-0.5-0.3-1.1,0.1-1.6
			c0.2-0.3,1.9-2.4,4.8-5.9c1.6-2,3.1-3.8,3.3-4.1c0.3-0.4,0.9-0.7,1.5-0.7c0,0,0,0,0,0c0.7,0,1.3,0.3,1.6,0.8
			c0.3,0.4,6.9,9.6,7.5,10.4c0.4,0.5,0.4,1.2,0.1,1.7C38.7,13.8,38.1,14.1,37.3,14.1z M21.7,11.9c0.6,0.1,3.3,0.1,6.3,0.3
			c3.9,0.1,8.9,0.3,9.3,0.3c0,0,0,0,0,0c-1-1.4-7.1-9.8-7.5-10.3c0,0-0.2,0-0.3,0c-0.2,0.3-1.7,2.1-3.4,4.2
			C24.6,8.4,22.3,11.1,21.7,11.9z"/>
	</g>
	<g>
		<path class="st0" d="M55.5,14.8c-0.5,0-5-0.2-9.4-0.3c-3.2-0.1-6-0.2-6.2-0.2c-0.7,0-1.3-0.4-1.6-1c-0.3-0.5-0.3-1.1,0.1-1.6
			c0.2-0.3,1.9-2.4,4.7-5.9c1.6-2,3.1-3.8,3.4-4.1c0.6-0.9,2.5-0.9,3.1,0c0.3,0.5,6.9,9.6,7.5,10.4c0.3,0.5,0.4,1.1,0.1,1.6
			C56.9,14.5,56.2,14.8,55.5,14.8z M39.9,12.6c0.6,0.1,3.3,0.1,6.3,0.3c3.9,0.1,8.9,0.3,9.3,0.3c0,0,0,0,0,0
			c-0.9-1.3-7.1-9.8-7.4-10.3c0,0-0.2,0-0.3,0C47.6,3.1,46.1,5,44.4,7C42.7,9.1,40.5,11.8,39.9,12.6z"/>
	</g>
</g>
</svg>
