<?xml version="1.0" encoding="utf-8"?>
<!-- Generator: Adobe Illustrator 23.0.4, SVG Export Plug-In . SVG Version: 6.00 Build 0)  -->
<svg version="1.1" id="Layer_1" xmlns="http://www.w3.org/2000/svg" xmlns:xlink="http://www.w3.org/1999/xlink" x="0px" y="0px"
	 viewBox="0 0 86 86" style="enable-background:new 0 0 86 86;" xml:space="preserve">
<style type="text/css">
	.st0{fill-rule:evenodd;clip-rule:evenodd;fill:#F2F2F2;}
	.st1{fill-rule:evenodd;clip-rule:evenodd;fill:#FAFAFA;}
	.st2{fill:#FCFCFC;stroke:#E5E5E5;stroke-width:1.5;stroke-linecap:round;stroke-linejoin:round;}
	.st3{fill:#EDEDF3;}
	.st4{fill:#FFD500;}
	.st5{fill:#D7D7E0;}
	.st6{fill:#FF6F00;}
	.st7{fill:#FFFFFF;}
	.st8{fill:none;}
	.st9{fill-rule:evenodd;clip-rule:evenodd;fill:none;}
	.st10{clip-path:url(#SVGID_4_);}
	.st11{clip-path:url(#SVGID_8_);enable-background:new    ;}
	.st12{clip-path:url(#SVGID_12_);}
	.st13{clip-path:url(#SVGID_16_);}
	.st14{clip-path:url(#SVGID_19_);fill:#FBBC05;}
	.st15{clip-path:url(#SVGID_22_);}
	.st16{clip-path:url(#SVGID_25_);enable-background:new    ;}
	.st17{clip-path:url(#SVGID_27_);}
	.st18{clip-path:url(#SVGID_29_);}
	.st19{clip-path:url(#SVGID_31_);fill:#EA4335;}
	.st20{clip-path:url(#SVGID_33_);}
	.st21{clip-path:url(#SVGID_35_);enable-background:new    ;}
	.st22{clip-path:url(#SVGID_37_);}
	.st23{clip-path:url(#SVGID_39_);}
	.st24{clip-path:url(#SVGID_41_);fill:#34A853;}
	.st25{clip-path:url(#SVGID_43_);}
	.st26{clip-path:url(#SVGID_45_);enable-background:new    ;}
	.st27{clip-path:url(#SVGID_47_);}
	.st28{clip-path:url(#SVGID_49_);}
	.st29{clip-path:url(#SVGID_51_);fill:#4285F4;}
	.st30{fill-rule:evenodd;clip-rule:evenodd;fill:#767789;}
	.st31{fill:#767789;}
	.st32{clip-path:url(#SVGID_53_);}
	.st33{clip-path:url(#SVGID_55_);fill:#767789;}
	.st34{clip-path:url(#SVGID_57_);}
	.st35{clip-path:url(#SVGID_59_);fill:#767789;}
	.st36{fill-rule:evenodd;clip-rule:evenodd;fill:#FF6100;}
	.st37{fill:#FF6100;}
	.st38{fill-rule:evenodd;clip-rule:evenodd;fill:#EDEDF3;}
	.st39{clip-path:url(#SVGID_61_);fill:#767789;}
	.st40{clip-path:url(#SVGID_63_);fill:#767789;}
	.st41{clip-path:url(#SVGID_65_);fill:#767789;}
	.st42{fill:none;stroke:#000000;stroke-linecap:round;stroke-linejoin:round;}
	.st43{fill:#9999AD;}
	.st44{fill:#0CAE32;}
	.st45{fill:#FFA05F;}
	.st46{fill:#F6A600;}
	.st47{fill:#F3A884;}
	.st48{fill:#F0591D;}
	.st49{fill:#ED835F;}
	.st50{fill:#83BFD8;}
	.st51{fill:none;stroke:#83BFD8;stroke-width:2;stroke-linecap:round;stroke-miterlimit:10;}
	.st52{fill:#FFE8C3;}
	.st53{fill:#3185B0;}
	.st54{fill:#3F3F3F;}
	.st55{fill:none;stroke:#ED835F;stroke-width:2;stroke-linecap:round;stroke-miterlimit:10;}
	.st56{fill:#F5F6FB;}
	.st57{fill:none;stroke:#FFFFFF;stroke-width:16.224;stroke-linecap:round;stroke-miterlimit:10;}
	.st58{opacity:0.5;fill:url(#SVGID_66_);}
	.st59{opacity:0.1;}
	.st60{fill:#02A33A;}
	.st61{fill:none;stroke:#D8D8E5;stroke-width:14.4844;stroke-linecap:round;stroke-linejoin:round;stroke-miterlimit:10;}
	.st62{fill:none;stroke:#767789;stroke-width:1.5;stroke-linecap:round;stroke-linejoin:round;}
	.st63{fill-rule:evenodd;clip-rule:evenodd;fill:#D7D7E0;}
	.st64{clip-path:url(#SVGID_68_);}
	.st65{clip-path:url(#SVGID_70_);fill:#EDEDF3;}
	.st66{clip-path:url(#SVGID_72_);}
	.st67{clip-path:url(#SVGID_74_);fill:#EDEDF3;}
	.st68{clip-path:url(#SVGID_76_);}
	.st69{clip-path:url(#SVGID_78_);fill:#EDEDF3;}
	.st70{clip-path:url(#SVGID_80_);}
	.st71{clip-path:url(#SVGID_82_);fill:#EDEDF3;}
	.st72{clip-path:url(#SVGID_84_);}
	.st73{clip-path:url(#SVGID_86_);fill:#EDEDF3;}
	.st74{fill:none;stroke:#767789;stroke-width:1.25;stroke-linecap:round;stroke-linejoin:round;}
	.st75{opacity:0.5;clip-path:url(#SVGID_88_);}
	.st76{fill:none;stroke:#B2B2B2;stroke-width:1.5;stroke-linecap:round;stroke-linejoin:round;}
	.st77{clip-path:url(#SVGID_90_);}
	.st78{fill:none;stroke:#E5E5E5;stroke-linecap:round;stroke-linejoin:round;}
	.st79{fill:#E5E5E5;}
	.st80{clip-path:url(#SVGID_92_);}
	.st81{clip-path:url(#SVGID_94_);}
	.st82{clip-path:url(#SVGID_96_);}
	.st83{clip-path:url(#SVGID_98_);}
	.st84{clip-path:url(#SVGID_100_);}
	.st85{clip-path:url(#SVGID_102_);}
	.st86{clip-path:url(#SVGID_104_);}
	.st87{clip-path:url(#SVGID_106_);fill:#E5E5E5;}
	.st88{clip-path:url(#SVGID_108_);fill:#E5E5E5;}
	.st89{clip-path:url(#SVGID_110_);fill:#E5E5E5;}
	.st90{clip-path:url(#SVGID_112_);fill:#E5E5E5;}
	.st91{clip-path:url(#SVGID_114_);fill:#E5E5E5;}
	.st92{clip-path:url(#SVGID_116_);fill:#E5E5E5;}
	.st93{clip-path:url(#SVGID_118_);fill:#E5E5E5;}
	.st94{clip-path:url(#SVGID_120_);fill:#E5E5E5;}
	.st95{clip-path:url(#SVGID_122_);fill:#E5E5E5;}
	.st96{clip-path:url(#SVGID_124_);}
	.st97{clip-path:url(#SVGID_126_);}
	.st98{clip-path:url(#SVGID_128_);}
	.st99{clip-path:url(#SVGID_130_);}
	.st100{clip-path:url(#SVGID_132_);}
	.st101{clip-path:url(#SVGID_134_);fill:#E5E5E5;}
	.st102{clip-path:url(#SVGID_136_);fill:#E5E5E5;}
	.st103{clip-path:url(#SVGID_138_);fill:#E5E5E5;}
	.st104{clip-path:url(#SVGID_140_);fill:#E5E5E5;}
	.st105{clip-path:url(#SVGID_142_);}
	.st106{clip-path:url(#SVGID_144_);fill:#E5E5E5;}
	.st107{clip-path:url(#SVGID_146_);fill:#E5E5E5;}
	.st108{clip-path:url(#SVGID_148_);fill:#E5E5E5;}
	.st109{clip-path:url(#SVGID_150_);fill:#E5E5E5;}
	.st110{clip-path:url(#SVGID_152_);}
	.st111{clip-path:url(#SVGID_154_);fill:#E5E5E5;}
	.st112{clip-path:url(#SVGID_156_);fill:#E5E5E5;}
	.st113{clip-path:url(#SVGID_158_);fill:#E5E5E5;}
	.st114{clip-path:url(#SVGID_160_);fill:#E5E5E5;}
	.st115{clip-path:url(#SVGID_162_);fill:#E5E5E5;}
	.st116{clip-path:url(#SVGID_164_);fill:#E5E5E5;}
	.st117{clip-path:url(#SVGID_166_);fill:#E5E5E5;}
	.st118{clip-path:url(#SVGID_168_);fill:#E5E5E5;}
	.st119{clip-path:url(#SVGID_170_);fill:#E5E5E5;}
	.st120{fill:#E1E1E1;}
</style>
<path class="st0" d="M86,3.19v79.62c0,1.76-1.43,3.19-3.19,3.19H3.19C1.43,86,0,84.57,0,82.81V3.19c0-0.21,0.02-0.41,0.06-0.61
	c0.03-0.15,0.07-0.3,0.12-0.44C0.2,2.07,0.23,2.01,0.25,1.95c0.18-0.43,0.45-0.81,0.8-1.11c0.01-0.01,0.02-0.02,0.03-0.03
	C1.14,0.75,1.2,0.7,1.26,0.66c0.09-0.08,0.19-0.15,0.3-0.2c0.06-0.04,0.13-0.08,0.2-0.11C1.84,0.3,1.93,0.26,2.02,0.23
	C2.11,0.19,2.2,0.16,2.3,0.13C2.35,0.12,2.39,0.1,2.44,0.1c0.14-0.05,0.29-0.07,0.44-0.08C2.98,0.01,3.08,0,3.18,0h79.63
	C84.57,0,86,1.43,86,3.19z"/>
<g>
	<defs>
		<path id="SVGID_56_" d="M-306.71-502.22c2.75,0,4.99-2.24,4.99-4.99c0-2.75-2.24-4.99-4.99-4.99c-2.75,0-4.99,2.24-4.99,4.99
			C-311.69-504.46-309.46-502.22-306.71-502.22z M-306.71-514c3.75,0,6.79,3.05,6.79,6.79c0,1.55-0.52,2.98-1.4,4.12l3.81,3.81
			l-1.28,1.28l-3.81-3.81c-1.14,0.88-2.57,1.4-4.12,1.4c-3.75,0-6.79-3.05-6.79-6.79C-313.5-510.95-310.45-514-306.71-514z"/>
	</defs>
	<clipPath id="SVGID_4_">
		<use xlink:href="#SVGID_56_"  style="overflow:visible;"/>
	</clipPath>
	<g class="st10">
		<defs>
			<rect id="SVGID_58_" x="-345.5" y="-610" width="375" height="667"/>
		</defs>
		<clipPath id="SVGID_8_">
			<use xlink:href="#SVGID_58_"  style="overflow:visible;"/>
		</clipPath>
	</g>
</g>
<circle class="st8" cx="32.47" cy="11.25" r="1"/>
<ellipse class="st8" cx="66.51" cy="35.52" rx="1" ry="0.96"/>
<path class="st8" d="M10.39,83.47c-0.45,0-0.81,0.35-0.81,0.78c0,0.43,0.36,0.78,0.81,0.78c0.45,0,0.81-0.35,0.81-0.78
	C11.19,83.82,10.83,83.47,10.39,83.47z"/>
<path class="st8" d="M57.46,32.09c-0.47,0.46-0.6,1.15-0.31,1.73c0.14,0.29,0.12,0.63-0.05,0.9s-0.47,0.45-0.81,0.46
	c-0.58,0.03-1.1,0.35-1.35,0.85c-0.25,0.5-0.2,1.09,0.13,1.55c0.16,0.21,0.22,0.48,0.16,0.74c-0.05,0.26-0.21,0.48-0.44,0.62
	c-0.1,0.06-0.19,0.13-0.28,0.21c-0.3,0.29-0.47,0.68-0.47,1.09c0,0.41,0.17,0.8,0.47,1.09c0.11,0.1,0.22,0.18,0.35,0.24
	c0.45,0.24,0.63,0.78,0.42,1.23c-0.23,0.48-0.18,1.04,0.13,1.48c0.31,0.44,0.83,0.69,1.38,0.67c0.32-0.01,0.62,0.13,0.82,0.37
	c0.2,0.24,0.26,0.56,0.17,0.85c-0.17,0.54-0.01,1.12,0.39,1.51l0.4,0.38c0.41,0.38,1.06,0.38,1.46-0.01l0.25-0.24
	c0.09-0.09,0.15-0.21,0.15-0.34c0-0.13-0.05-0.25-0.15-0.34l-0.57-0.54c-1.94-1.87-2.99-4.42-2.9-7.06
	c0.08-2.64,1.31-5.13,3.39-6.87c1.71-1.44,3.9-2.25,6.17-2.3c0.19,0,0.35-0.12,0.42-0.28c0.07-0.17,0.03-0.36-0.1-0.48
	c-0.62-0.57-1.61-0.58-2.24-0.02l-0.05,0.06c-0.34,0.32-0.86,0.37-1.26,0.12c-0.64-0.4-1.48-0.32-2.02,0.19
	c-0.28,0.27-0.44,0.63-0.46,1c-0.02,0.32-0.2,0.61-0.48,0.77c-0.28,0.16-0.63,0.18-0.94,0.05C58.65,31.52,57.93,31.64,57.46,32.09z"
	/>
<path class="st8" d="M71.97,6.23L71.97,6.23c0.27,0,0.52-0.1,0.71-0.29c0.19-0.19,0.29-0.44,0.29-0.71c0-0.55-0.45-1-1-1
	c-0.55,0-1,0.45-1,1S71.42,6.23,71.97,6.23z"/>
<path class="st8" d="M1.79,33.84c-0.02,0.62-0.18,1.22-0.49,1.75c-0.34,0.68-0.56,1.43-0.65,2.19c-0.02,0.26-0.23,0.47-0.5,0.47H0
	v-2.72c0.18-0.51,0.27-1.04,0.3-1.58c0-0.25,0.18-0.47,0.43-0.5l0.49-0.07c0.14-0.01,0.28,0.03,0.39,0.11
	C1.71,33.58,1.78,33.71,1.79,33.84z"/>
<path class="st8" d="M4.8,35.59c0.41-0.92,0.69-1.55,0.32-2.37c-0.09-0.2-0.3-0.32-0.52-0.29l-0.4,0.05
	c-0.27,0.04-0.46,0.28-0.43,0.55c0.06,1-0.16,1.99-0.64,2.86c-0.2,0.4-0.35,0.82-0.45,1.25c-0.03,0.15,0.01,0.3,0.11,0.41
	c0.1,0.11,0.24,0.18,0.39,0.18h0.48c0.26,0,0.48-0.2,0.5-0.47C4.24,37.02,4.46,36.28,4.8,35.59z"/>
<path class="st8" d="M65.86,39.94c0,0.53,0.45,0.96,1,0.96v0c0.55,0,1-0.43,1-0.96c0-0.53-0.45-0.96-1-0.96
	C66.31,38.98,65.86,39.41,65.86,39.94z"/>
<ellipse class="st8" cx="62.27" cy="39.59" rx="1" ry="0.96"/>
<path class="st8" d="M37.1,43.22c-1.26,0.3-2.25,1.28-2.55,2.55l-0.31,1.37c-0.17,0.71-0.72,1.26-1.42,1.42l-1.37,0.32
	c-1.26,0.3-2.25,1.28-2.55,2.55l-0.32,1.37c-0.17,0.71-0.72,1.26-1.42,1.42l-1.37,0.32c-1.26,0.3-2.25,1.28-2.55,2.55
	c-0.09,0.4,0.16,0.81,0.56,0.9c0.4,0.09,0.81-0.16,0.9-0.56c0.17-0.71,0.72-1.26,1.42-1.42l1.37-0.32c1.26-0.3,2.25-1.28,2.55-2.55
	l0.32-1.37c0.17-0.71,0.72-1.26,1.42-1.42l1.37-0.32c1.26-0.3,2.25-1.28,2.55-2.55l0.32-1.37c0.17-0.71,0.72-1.26,1.42-1.42
	c0.27-0.05,0.49-0.25,0.57-0.51c0.08-0.26,0.02-0.55-0.17-0.74C37.65,43.23,37.37,43.15,37.1,43.22z"/>
<path class="st8" d="M62.78,43.2c-0.55,0-1,0.43-1,0.96c0,0.53,0.45,0.96,1,0.96c0.27,0,0.52-0.1,0.71-0.28
	c0.19-0.18,0.29-0.42,0.29-0.68C63.78,43.62,63.33,43.2,62.78,43.2z"/>
<ellipse class="st8" cx="62.1" cy="35.38" rx="1" ry="0.96"/>
<path class="st8" d="M74.97,11.73L74.97,11.73c-0.55,0-1,0.45-1,1c0,0.55,0.45,1,1,1c0.55,0,1-0.45,1-1S75.52,11.73,74.97,11.73z"/>
<path class="st8" d="M34.97,10.25c0.27,0,0.52-0.1,0.71-0.29c0.19-0.19,0.29-0.44,0.29-0.71c0-0.55-0.45-1-1-1c-0.55,0-1,0.45-1,1
	S34.42,10.25,34.97,10.25z"/>
<path class="st8" d="M78.47,8.73L78.47,8.73c-0.55,0-1,0.45-1,1c0,0.55,0.45,1,1,1c0.55,0,1-0.45,1-1S79.02,8.73,78.47,8.73z"/>
<circle class="st8" cx="37.47" cy="11.25" r="1"/>
<path class="st8" d="M10.39,81.92c0.45,0,0.81-0.35,0.81-0.78c0-0.43-0.36-0.78-0.81-0.78c-0.45,0-0.81,0.35-0.81,0.78
	C9.58,81.57,9.94,81.92,10.39,81.92z"/>
<path class="st8" d="M39.97,10.25c0.27,0,0.52-0.1,0.71-0.29c0.19-0.19,0.29-0.44,0.29-0.71c0-0.55-0.45-1-1-1c-0.55,0-1,0.45-1,1
	S39.42,10.25,39.97,10.25z"/>
<circle class="st8" cx="42.47" cy="11.25" r="1"/>
<path class="st8" d="M13.61,78.81c0.44,0,0.81-0.35,0.81-0.78c0-0.43-0.36-0.78-0.8-0.78c-0.44,0-0.8,0.35-0.81,0.78
	C12.81,78.47,13.17,78.81,13.61,78.81z"/>
<path class="st8" d="M14.42,81.14c0-0.31-0.2-0.6-0.5-0.72c-0.3-0.12-0.65-0.05-0.88,0.17c-0.23,0.22-0.3,0.56-0.17,0.85
	c0.12,0.29,0.42,0.48,0.74,0.48C14.06,81.92,14.42,81.57,14.42,81.14z"/>
<path class="st8" d="M71.97,9.73c0-0.55-0.45-1-1-1c-0.55,0-1,0.45-1,1s0.45,1,1,1v0c0.27,0,0.52-0.11,0.71-0.29
	C71.86,10.25,71.97,10,71.97,9.73z"/>
<path class="st8" d="M71.1,36.82L71.1,36.82c0.55,0,1-0.43,1-0.96c0-0.53-0.45-0.96-1-0.96c-0.55,0-1,0.43-1,0.96
	S70.55,36.82,71.1,36.82z"/>
<path class="st120" d="M27.97,25.75h19c1.1,0,2-0.9,2-2s-0.9-2-2-2c-0.32,0-0.63,0.13-0.85,0.35l-1.63,1.63
	c-0.61,0.61-1.54,0.76-2.31,0.38l-4.08-2.04c-0.42-0.21-0.88-0.32-1.34-0.32h-8.79c-1.1,0-2,0.9-2,2S26.86,25.75,27.97,25.75z"/>
<path class="st120" d="M29.97,30.25h15c1.1,0,2-0.9,2-2v-0.5c0-0.28-0.22-0.5-0.5-0.5h-18c-0.28,0-0.5,0.22-0.5,0.5v0.5
	C27.97,29.35,28.86,30.25,29.97,30.25z"/>
<path class="st120" d="M34.27,19.64c0.04-0.07,0.12-0.12,0.2-0.12c0.08,0,0.16,0.04,0.21,0.1c0.71,0.78,1.73,1.2,2.79,1.13
	c1.05,0.07,2.08-0.34,2.79-1.13c0.05-0.07,0.13-0.1,0.21-0.1s0.16,0.05,0.2,0.12c0.5,0.77,1.38,1.2,2.3,1.11
	c0.88,0.02,1.72-0.39,2.24-1.1c0.15-0.19,0.41-0.25,0.62-0.15c0.36,0.17,0.74,0.25,1.14,0.25c1.11,0,2-0.4,2-1.5c0-1.1-2-1.5-2-1.5
	l-19,0c0,0-2,0.4-2,1.5s0.9,1.5,2,1.5c0.39,0,0.78-0.08,1.14-0.25c0.22-0.11,0.48-0.05,0.62,0.15c0.52,0.71,1.36,1.12,2.24,1.1
	C32.88,20.84,33.77,20.41,34.27,19.64z"/>
<path class="st120" d="M37.47,6.25c-5.07,0-9.21,3.5-9.49,8.47c0,0.14,0.05,0.27,0.14,0.37c0.09,0.1,0.23,0.16,0.36,0.16h17.97
	c0.14,0,0.27-0.06,0.37-0.16c0.09-0.1,0.14-0.23,0.13-0.37C46.68,9.75,42.54,6.25,37.47,6.25z M32.47,12.25c-0.55,0-1-0.45-1-1
	s0.45-1,1-1c0.55,0,1,0.45,1,1S33.02,12.25,32.47,12.25z M35.68,9.96c-0.19,0.19-0.45,0.29-0.71,0.29c-0.55,0-1-0.45-1-1s0.45-1,1-1
	c0.55,0,1,0.45,1,1C35.97,9.51,35.86,9.77,35.68,9.96z M37.47,12.25c-0.55,0-1-0.45-1-1s0.45-1,1-1c0.55,0,1,0.45,1,1
	S38.02,12.25,37.47,12.25z M40.68,9.96c-0.19,0.19-0.45,0.29-0.71,0.29c-0.55,0-1-0.45-1-1s0.45-1,1-1c0.55,0,1,0.45,1,1
	C40.97,9.51,40.86,9.77,40.68,9.96z M42.47,12.25c-0.55,0-1-0.45-1-1s0.45-1,1-1c0.55,0,1,0.45,1,1S43.02,12.25,42.47,12.25z"/>
<path class="st120" d="M77.31,59.87c0.19,0.27,0.31,0.57,0.37,0.9c0.04,0.22,0.79,0.68,2.1,0.81c0.15,0.01,0.29-0.04,0.4-0.14
	c0.11-0.1,0.16-0.24,0.15-0.38l-1-11.41c-0.01-0.13-0.07-0.24-0.18-0.33c-0.1-0.08-0.23-0.12-0.36-0.11l-1.99,0.16
	c-0.27,0.02-0.48,0.25-0.46,0.52l0.8,9.53C77.16,59.58,77.21,59.74,77.31,59.87z"/>
<path class="st120" d="M84.14,49.37l-1.99-0.16c-0.13-0.01-0.26,0.03-0.36,0.11c-0.1,0.08-0.16,0.2-0.18,0.33l-0.99,11.41
	c-0.01,0.14,0.04,0.28,0.15,0.38c0.11,0.1,0.25,0.15,0.4,0.14c1.3-0.13,2.04-0.59,2.08-0.8c0.06-0.33,0.19-0.64,0.39-0.92
	c0.1-0.14,0.16-0.3,0.17-0.46l0.8-9.5c0.01-0.13-0.03-0.25-0.12-0.35S84.27,49.38,84.14,49.37z"/>
<path class="st120" d="M86,53.75v5.06h-0.32c-0.34,0-0.66,0.06-0.97,0.19c-0.09,0.03-0.19,0.02-0.27-0.04
	c-0.07-0.07-0.1-0.17-0.07-0.26L86,53.75z"/>
<path class="st120" d="M73.8,58.81h1.44c0.34,0,0.68,0.07,0.99,0.2c0.09,0.04,0.2,0.02,0.27-0.04c0.07-0.06,0.1-0.16,0.07-0.25
	l-2.21-6.72c-0.04-0.12-0.13-0.22-0.25-0.28c-0.12-0.06-0.26-0.07-0.38-0.03l-1.91,0.58c-0.26,0.08-0.41,0.35-0.33,0.6l1.83,5.61
	C73.39,58.67,73.58,58.81,73.8,58.81z"/>
<path class="st120" d="M86,60.25v11.72c-0.24,0.18-0.55,0.28-0.87,0.28h-9.32c-0.67,0-1.25-0.43-1.41-1.06l-2.55-9.77
	c-0.07-0.28-0.01-0.58,0.18-0.81c0.18-0.23,0.47-0.36,0.77-0.36h2.44c0.47,0,0.88,0.33,0.96,0.77c0.26,1.4,2.39,2.03,4.26,2.03
	s3.99-0.63,4.25-2.03c0.09-0.44,0.49-0.77,0.97-0.77H86z"/>
<path class="st120" d="M13.01,13.8c-1.57,1.53-4.08,1.53-5.65,0L0,6.44V3.19c0-0.21,0.02-0.41,0.06-0.61
	c0.03-0.15,0.07-0.3,0.12-0.44C0.2,2.07,0.23,2.01,0.25,1.95c0.18-0.43,0.45-0.81,0.8-1.11C1.18,1.05,1.42,1.2,1.69,1.2
	c0.41,0,0.75-0.34,0.75-0.75V0.1c0.14-0.05,0.29-0.07,0.44-0.08C2.98,0.01,3.08,0,3.18,0h1.69c0.04,0.05,0.07,0.1,0.07,0.17v3.87
	c0,0.41,0.33,0.75,0.75,0.75c0.41,0,0.75-0.34,0.75-0.75V1.93c0-0.29,0.2-0.16,0.2-0.16l2.22,2.22C8.91,4.04,8.94,4.1,8.94,4.17
	v3.37c0,0.41,0.33,0.75,0.75,0.75c0.41,0,0.75-0.34,0.75-0.75V5.87c0-0.32,0.25-0.05,0.25-0.05l2.32,2.32
	C14.57,9.71,14.57,12.24,13.01,13.8z"/>
<path class="st120" d="M41.29,51.4c1.19-1.15,1.51-2.93,0.81-4.43c-0.07-0.15-0.2-0.26-0.37-0.28c-0.16-0.03-0.33,0.02-0.44,0.14
	L26.04,62.07c-0.12,0.12-0.17,0.28-0.14,0.44c0.03,0.16,0.14,0.3,0.29,0.37c1.5,0.71,3.28,0.38,4.43-0.81L41.29,51.4z"/>
<path class="st120" d="M19.2,55.82c0.16,0.03,0.33-0.02,0.44-0.14L34.9,40.43c0.12-0.12,0.17-0.28,0.14-0.44
	c-0.03-0.16-0.14-0.3-0.29-0.37c-1.5-0.71-3.28-0.38-4.43,0.81L19.65,51.1c-1.19,1.15-1.51,2.93-0.81,4.43
	C18.91,55.68,19.04,55.79,19.2,55.82z"/>
<path class="st120" d="M39.72,42c-1.18-1.18-3.09-1.18-4.27,0L21.22,56.23c-1.18,1.18-1.18,3.09-0.01,4.27
	c1.18,1.18,3.1,1.18,4.28,0l14.23-14.23C40.9,45.09,40.9,43.18,39.72,42z M38.01,44.17c-0.09,0.26-0.3,0.46-0.57,0.51
	c-0.71,0.17-1.26,0.72-1.43,1.43l-0.31,1.36c-0.3,1.27-1.29,2.26-2.55,2.55l-1.37,0.32c-0.71,0.16-1.26,0.72-1.42,1.42l-0.32,1.37
	c-0.29,1.27-1.28,2.25-2.55,2.55L26.12,56c-0.7,0.16-1.25,0.71-1.42,1.42c-0.09,0.4-0.5,0.65-0.9,0.56c-0.4-0.09-0.65-0.49-0.56-0.9
	c0.3-1.26,1.28-2.25,2.55-2.55l1.37-0.31c0.7-0.17,1.25-0.72,1.42-1.43l0.32-1.36c0.29-1.27,1.28-2.26,2.54-2.55l1.37-0.32
	c0.71-0.16,1.26-0.72,1.43-1.42l0.31-1.37c0.3-1.27,1.29-2.25,2.55-2.55c0.27-0.07,0.55,0.01,0.73,0.21
	C38.02,43.63,38.09,43.91,38.01,44.17z"/>
<path class="st120" d="M81.17,1.41c-0.01,0.14-0.08,0.27-0.18,0.35l-4.1,3.33c-0.15,0.16-0.38,0.2-0.58,0.12
	c-0.19-0.08-0.32-0.27-0.32-0.49V0h3.66c0.5,0.28,0.97,0.63,1.39,1.04C81.14,1.14,81.18,1.28,81.17,1.41z"/>
<path class="st79" d="M82.75,0l-0.04,0.04c-0.1,0.1-0.23,0.16-0.37,0.16c-0.14,0-0.27-0.06-0.37-0.16C81.96,0.03,81.94,0.01,81.93,0
	H82.75z"/>
<path class="st120" d="M82.45,15.57c-3.11,3.62-8.27,4.69-12.57,2.6c-4.29-2.09-6.64-6.82-5.7-11.5c0.56-2.8,2.2-5.17,4.46-6.67
	h5.83v0.06c0,0.27-0.21,0.49-0.47,0.5c-3.71,0.22-6.81,2.9-7.55,6.54c-0.74,3.63,1.05,7.32,4.38,8.96c3.33,1.65,7.35,0.86,9.79-1.94
	c2.45-2.79,2.71-6.88,0.63-9.96c-0.14-0.21-0.1-0.5,0.1-0.66l1.05-0.85c0.11-0.09,0.25-0.13,0.39-0.11c0.13,0.02,0.26,0.1,0.34,0.21
	C85.84,6.68,85.56,11.95,82.45,15.57z"/>
<path class="st120" d="M79.91,5.17c-0.08-0.12-0.2-0.2-0.34-0.22c-0.13-0.02-0.28,0.01-0.39,0.1l-3.96,3.1
	c-0.14,0.11-0.33,0.13-0.49,0.05c-0.16-0.08-0.26-0.24-0.26-0.42V2.75c0-0.14-0.06-0.27-0.16-0.37c-0.1-0.09-0.24-0.14-0.38-0.13
	c-2.92,0.24-5.31,2.41-5.85,5.28c-0.54,2.88,0.91,5.76,3.54,7.04c2.63,1.28,5.79,0.65,7.72-1.54C81.28,10.83,81.51,7.62,79.91,5.17z
	 M71.68,10.44c-0.19,0.19-0.45,0.29-0.71,0.29c-0.55,0-1-0.45-1-1s0.45-1,1-1c0.55,0,1,0.45,1,1C71.97,10,71.86,10.25,71.68,10.44z
	 M72.68,5.94c-0.19,0.19-0.45,0.29-0.71,0.29c-0.55,0-1-0.45-1-1s0.45-1,1-1c0.55,0,1,0.45,1,1C72.97,5.5,72.86,5.75,72.68,5.94z
	 M74.97,13.73c-0.55,0-1-0.45-1-1s0.45-1,1-1c0.55,0,1,0.45,1,1S75.52,13.73,74.97,13.73z M78.47,10.73c-0.55,0-1-0.45-1-1
	s0.45-1,1-1c0.55,0,1,0.45,1,1S79.02,10.73,78.47,10.73z"/>
<path class="st120" d="M74.02,33.34c-1.25-1.2-2.8-2.09-4.49-2.56c-0.2-0.05-0.34-0.22-0.36-0.41c-0.13-1.17-0.86-2.21-1.96-2.74
	c-1.09-0.54-2.39-0.5-3.45,0.09c-0.12,0.07-0.27,0.08-0.4,0.05c-1.28-0.39-2.68-0.06-3.64,0.85c-0.26,0.25-0.47,0.54-0.64,0.85
	c-0.09,0.16-0.26,0.27-0.45,0.26c-0.97-0.01-1.9,0.35-2.59,1.01c-0.68,0.65-1.06,1.55-1.04,2.48c0,0.18-0.11,0.35-0.28,0.43
	c-0.33,0.16-0.63,0.37-0.89,0.62c-0.92,0.89-1.27,2.18-0.91,3.39c0.04,0.15,0.01,0.31-0.09,0.43c-1.12,1.35-1.03,3.29,0.21,4.55
	c0.1,0.1,0.15,0.24,0.13,0.39c-0.19,1.56,0.74,3.05,2.27,3.62c0.18,0.07,0.3,0.21,0.32,0.39c0.1,0.76,0.45,1.47,1.02,2.02l0.4,0.38
	c1.19,1.14,3.11,1.14,4.3,0l1.13-1.09l11.41-10.96c0.56-0.53,0.87-1.26,0.87-2.02C74.89,34.6,74.58,33.88,74.02,33.34z M60.3,47.84
	l-0.25,0.23c-0.4,0.39-1.05,0.39-1.46,0.01l-0.4-0.38c-0.41-0.4-0.56-0.98-0.4-1.52c0.09-0.29,0.03-0.61-0.17-0.85
	c-0.2-0.24-0.5-0.38-0.82-0.37c-0.55,0.02-1.07-0.23-1.38-0.67c-0.31-0.44-0.36-1-0.13-1.48c0.21-0.45,0.03-0.99-0.42-1.23
	c-0.13-0.07-0.25-0.15-0.35-0.24c-0.31-0.29-0.48-0.68-0.48-1.09c0-0.41,0.17-0.8,0.48-1.09c0.08-0.08,0.17-0.15,0.27-0.21
	c0.23-0.14,0.39-0.36,0.44-0.62c0.05-0.26,0-0.52-0.16-0.74c-0.34-0.45-0.38-1.05-0.13-1.54c0.25-0.5,0.77-0.83,1.35-0.86
	c0.33-0.01,0.63-0.19,0.81-0.46c0.17-0.28,0.18-0.61,0.04-0.9c-0.28-0.59-0.16-1.28,0.32-1.74c0.47-0.45,1.19-0.57,1.8-0.3
	c0.3,0.14,0.65,0.12,0.94-0.04c0.28-0.17,0.46-0.45,0.48-0.77c0.02-0.38,0.18-0.74,0.46-1c0.54-0.52,1.38-0.6,2.01-0.2
	c0.4,0.26,0.93,0.21,1.27-0.12l0.05-0.06c0.64-0.56,1.62-0.55,2.24,0.02c0.13,0.13,0.17,0.32,0.1,0.49
	c-0.07,0.16-0.23,0.27-0.42,0.28c-2.27,0.05-4.46,0.86-6.17,2.3c-2.08,1.73-3.31,4.22-3.39,6.87c-0.08,2.63,0.97,5.18,2.9,7.05
	l0.57,0.55c0.09,0.09,0.15,0.21,0.15,0.34C60.45,47.62,60.39,47.75,60.3,47.84z M62.1,34.42c0.56,0,1,0.43,1,0.96
	c0,0.53-0.44,0.96-1,0.96c-0.55,0-1-0.43-1-0.96C61.1,34.85,61.55,34.42,62.1,34.42z M61.27,39.59c0-0.53,0.45-0.96,1-0.96
	c0.55,0,1,0.43,1,0.96c0,0.53-0.45,0.96-1,0.96C61.72,40.55,61.27,40.12,61.27,39.59z M63.48,44.83c-0.18,0.19-0.44,0.29-0.7,0.29
	c-0.56-0.01-1-0.43-1-0.96c0-0.54,0.45-0.96,1-0.96c0.55,0,1,0.42,1,0.96C63.78,44.41,63.67,44.66,63.48,44.83z M65.51,35.52
	c0-0.53,0.45-0.96,1-0.96s1,0.43,1,0.96s-0.45,0.96-1,0.96S65.51,36.05,65.51,35.52z M66.86,40.89L66.86,40.89
	c-0.55,0.01-1-0.42-1-0.95s0.45-0.96,1-0.96s1,0.43,1,0.96S67.41,40.89,66.86,40.89z M71.1,36.82c-0.55,0-1-0.43-1-0.96
	s0.45-0.96,1-0.96c0.56,0,1,0.43,1,0.96S71.66,36.82,71.1,36.82z"/>
<path class="st120" d="M20.33,77.16c0.08,0.02,0.16,0,0.22-0.06c0.06-0.05,0.08-0.13,0.07-0.2c-0.28-1.7-1.75-2.99-3.53-3.11
	c-0.08,0-0.15,0.03-0.2,0.08c-0.05,0.06-0.07,0.13-0.05,0.2l0.49,1.94c0.09,0.35,0.37,0.61,0.74,0.69L20.33,77.16z"/>
<path class="st120" d="M24.56,76.37c0.7-1.03,0.48-2.4-0.5-3.19c-0.12-0.1-0.19-0.24-0.18-0.4c0.06-0.69-0.2-1.38-0.72-1.87
	c-0.51-0.49-1.22-0.74-1.94-0.69c-0.16,0.01-0.31-0.05-0.41-0.17c-0.82-0.95-2.25-1.16-3.32-0.48c-0.12,0.08-0.27,0.1-0.41,0.06
	c-0.79-0.23-1.63-0.13-2.33,0.28c-1.04,0.55-1.57,1.69-1.3,2.79c0.04,0.16,0,0.33-0.12,0.45L2.42,83.65
	C2.16,83.9,2,84.23,1.97,84.57c-0.02,0.22,0.12,0.42,0.33,0.48L5.42,86h11.1c0.8-0.79,1.28-1.82,1.36-2.93
	c0.03-0.52-0.03-1.04-0.18-1.54l-2.31-9.28c-0.07-0.29,0.06-0.59,0.33-0.74c0.32-0.22,0.76-0.2,1.06,0.06
	c0.22,0.22,0.54,0.33,0.85,0.29c0.32-0.05,0.59-0.25,0.73-0.53c0.02-0.05,0.06-0.11,0.1-0.15c0.23-0.22,0.59-0.22,0.82-0.01
	c0.1,0.1,0.16,0.24,0.16,0.38c0.02,0.35,0.24,0.67,0.58,0.8c0.34,0.14,0.73,0.08,1.01-0.15c0.22-0.19,0.56-0.18,0.77,0.02
	c0.21,0.2,0.22,0.53,0.03,0.74c-0.24,0.27-0.31,0.65-0.17,0.97c0.15,0.33,0.47,0.55,0.84,0.57c0.14,0,0.28,0.05,0.38,0.14
	c0.22,0.22,0.23,0.57,0.01,0.79c-0.05,0.05-0.11,0.08-0.17,0.11c-0.29,0.13-0.49,0.39-0.54,0.7c-0.05,0.3,0.07,0.61,0.3,0.82
	c0.46,0.39,0.1,0.96,0.02,1.06c-0.15,0.23-0.43,0.34-0.7,0.28l-3.73-0.75c-0.08-0.01-0.16,0.01-0.22,0.07
	c-0.06,0.05-0.08,0.13-0.06,0.21l0.84,3.38c0.06,0.18,0.1,0.36,0.13,0.55c0.02,0.09,0.08,0.15,0.17,0.18c0.08,0.03,0.18,0,0.24-0.06
	l1.66-1.59c0.12-0.12,0.31-0.17,0.48-0.12c0.2,0.06,0.41,0.09,0.62,0.09c0.89-0.02,1.7-0.48,2.17-1.2c0.51-0.7,0.66-1.58,0.4-2.39
	C24.46,76.63,24.48,76.49,24.56,76.37z M10.39,85.02c-0.45,0-0.81-0.35-0.81-0.77c0-0.43,0.36-0.78,0.81-0.78
	c0.44,0,0.8,0.35,0.8,0.78C11.19,84.67,10.83,85.02,10.39,85.02z M10.39,81.92c-0.45,0-0.81-0.35-0.81-0.78s0.36-0.78,0.81-0.78
	c0.44,0,0.8,0.35,0.8,0.78S10.83,81.92,10.39,81.92z M13.61,81.92c-0.33,0-0.62-0.19-0.74-0.48c-0.13-0.29-0.06-0.63,0.17-0.85
	c0.23-0.22,0.58-0.29,0.88-0.17c0.3,0.12,0.5,0.41,0.5,0.72C14.42,81.57,14.06,81.92,13.61,81.92z M13.61,78.81
	c-0.44,0-0.8-0.34-0.8-0.77c0-0.43,0.36-0.78,0.8-0.78c0.45,0,0.81,0.35,0.81,0.78C14.42,78.47,14.06,78.81,13.61,78.81z"/>
<polygon class="st79" points="13.41,29.74 13.42,29.74 13.42,29.74 "/>
<path class="st120" d="M7.62,32.53l6.06-0.81c0.55-0.07,0.93-0.57,0.86-1.12c-0.08-0.55-0.58-0.93-1.12-0.86L0,31.54v3.99
	c0.18-0.51,0.27-1.04,0.3-1.58c0-0.25,0.18-0.47,0.43-0.5l0.49-0.07c0.14-0.01,0.28,0.03,0.39,0.11c0.1,0.09,0.17,0.22,0.18,0.35
	c-0.02,0.62-0.18,1.22-0.49,1.75c-0.34,0.68-0.56,1.43-0.65,2.19c-0.02,0.26-0.23,0.47-0.5,0.47H0v11h6.72c0.28,0,0.5-0.22,0.5-0.5
	c0-0.24-0.04-0.47-0.12-0.69c-0.09-0.25,0.03-0.53,0.27-0.63c3.31-1.41,5.69-4.38,6.33-7.92c0.06-0.3-0.02-0.62-0.22-0.87
	c-0.19-0.25-0.49-0.39-0.81-0.39h-6c-0.15,0-0.29-0.07-0.39-0.18c-0.09-0.11-0.13-0.27-0.1-0.41c0.1-0.43,0.25-0.86,0.45-1.25
	c0.56-0.99,0.76-2.15,0.56-3.27c-0.03-0.13,0-0.28,0.08-0.39C7.35,32.63,7.48,32.55,7.62,32.53z M4.8,35.59
	c-0.34,0.69-0.56,1.43-0.65,2.19c-0.02,0.27-0.23,0.47-0.5,0.47H3.17c-0.15,0-0.29-0.07-0.39-0.18c-0.09-0.11-0.13-0.27-0.1-0.41
	c0.1-0.43,0.25-0.86,0.45-1.25c0.47-0.88,0.7-1.87,0.64-2.87c-0.03-0.27,0.16-0.51,0.43-0.55l0.4-0.05
	c0.22-0.03,0.43,0.08,0.52,0.29C5.49,34.04,5.21,34.67,4.8,35.59z"/>
<path class="st120" d="M15.06,26.8c-0.15,0.22-0.38,0.37-0.64,0.43L0,30.27v-2.05l14.01-2.95c0.26-0.05,0.53,0,0.76,0.14
	c0.22,0.15,0.37,0.37,0.43,0.63C15.25,26.3,15.2,26.57,15.06,26.8z"/>
<path class="st120" d="M51.18,67.29c-0.39-0.38-1.02-0.37-1.4,0.01s-0.39,1.01-0.01,1.4c0.3,0.3,0.3,0.79,0,1.09
	c-1.08,1.08-1.08,2.83,0,3.91C49.95,73.9,50.2,74,50.47,74c0.4,0,0.77-0.24,0.92-0.62c0.15-0.37,0.07-0.8-0.22-1.09
	c-0.3-0.3-0.3-0.79,0-1.09C52.25,70.12,52.25,68.38,51.18,67.29z"/>
<path class="st120" d="M55.68,67.29c-0.39-0.38-1.02-0.37-1.4,0.01s-0.39,1.01-0.01,1.4c0.3,0.3,0.3,0.79,0,1.09
	c-1.08,1.08-1.08,2.83,0,3.91C54.45,73.9,54.7,74,54.97,74c0.4,0,0.77-0.24,0.92-0.62c0.15-0.37,0.07-0.8-0.22-1.09
	c-0.3-0.3-0.3-0.79,0-1.09C56.75,70.12,56.75,68.38,55.68,67.29z"/>
<path class="st120" d="M59.45,78.8c0.03-0.22,0.04-0.43,0.05-0.63c0-0.13,0.06-0.25,0.15-0.34l1.66-1.66
	c0.12-0.12,0.29-0.17,0.45-0.14c0.98,0.2,1.97-0.27,2.44-1.15c0.47-0.88,0.31-1.97-0.4-2.67l0,0c-0.19-0.19-0.41-0.34-0.65-0.44
	c-0.11-0.05-0.2-0.14-0.26-0.26c-0.11-0.24-0.26-0.46-0.44-0.65c-0.9-0.86-2.32-0.86-3.22,0c-0.54,0.53-0.76,1.3-0.61,2.04
	c0.04,0.17-0.02,0.34-0.14,0.46l-1.79,1.8c-0.15,0.15-0.34,0.25-0.55,0.28c-0.42,0.07-0.82,0.2-1.2,0.4
	c-2.78,1.45-4.33,3.92-1.91,6.33c0.23,0.18,0.33,0.47,0.27,0.76c-0.06,0.28-0.29,0.5-0.57,0.57c-0.28,0.06-0.58-0.04-0.76-0.27
	c-0.98-0.83-1.57-2.03-1.63-3.32c-0.05-1.28,0.43-2.53,1.34-3.44c0.07-0.08,0.09-0.19,0.04-0.29c-0.05-0.09-0.15-0.15-0.26-0.13
	c-4.83,0.52-8.49,4.59-8.5,9.45c0,0.28,0.22,0.5,0.5,0.5h18c0.28,0,0.5-0.22,0.5-0.5c0-2.32-0.85-4.57-2.4-6.3
	C59.47,79.09,59.43,78.95,59.45,78.8z"/>
<path class="st9" d="M86,3.19v79.62c0,1.76-1.43,3.19-3.19,3.19H3.19C1.43,86,0,84.57,0,82.81V3.19c0-0.21,0.02-0.41,0.06-0.61
	c0.03-0.15,0.07-0.3,0.12-0.44C0.2,2.07,0.23,2.01,0.25,1.95c0.19-0.44,0.47-0.83,0.83-1.14C1.14,0.75,1.2,0.7,1.26,0.66
	c0.09-0.08,0.19-0.15,0.3-0.2c0.06-0.04,0.13-0.08,0.2-0.11C1.84,0.3,1.93,0.26,2.02,0.23C2.11,0.19,2.2,0.16,2.3,0.13
	c0.19-0.06,0.38-0.1,0.58-0.11C2.98,0.01,3.08,0,3.18,0h79.63C84.57,0,86,1.43,86,3.19z"/>
</svg>
